<svg xmlns="http://www.w3.org/2000/svg" viewBox="0 0 487.17 165.5"><defs><style>.cls-1,.cls-3{fill:#00b7fc;}.cls-2{fill:#fff;}.cls-3{font-size:45.51px;font-family:GochiHand-Regular, Gochi Hand;letter-spacing:0.01em;}</style></defs><g id="Livello_2" data-name="Livello 2"><g id="Livello_1-2" data-name="Livello 1"><path class="cls-1" d="M61.34,72.59q0-14.22,3.42-21.86t9.8-7.65q10.17,0,10.17,17.55a94,94,0,0,1-.68,11.69,90.93,90.93,0,0,1-1.93,10.61,13.41,13.41,0,0,0-.27,1.35,8.31,8.31,0,0,0-.09,1.17,7.35,7.35,0,0,0,.72,3.33Q87,100.2,99.12,100.2a17.86,17.86,0,0,0,8.1-1.89,20.74,20.74,0,0,0,6.56-5.17,24.24,24.24,0,0,0,4.36-7.69,28.17,28.17,0,0,0,1.58-9.54,29.08,29.08,0,0,0-1.35-9.57,37.57,37.57,0,0,0-3-6.57l-3-5a10,10,0,0,1-1.35-5.17,4.54,4.54,0,0,1,1.22-2.83A14.14,14.14,0,0,1,115.36,44a17.72,17.72,0,0,1,4-2.08,12.41,12.41,0,0,1,4.19-.81c1.73,0,3.46,1,5.17,2.89a27.7,27.7,0,0,1,4.58,7.5,52.22,52.22,0,0,1,3.24,10.57,59.56,59.56,0,0,1,1.22,12,42.22,42.22,0,0,1-3.24,16.47,44.47,44.47,0,0,1-8.81,13.58,42.1,42.1,0,0,1-13,9.26,37.08,37.08,0,0,1-15.7,3.42,29.83,29.83,0,0,1-12.46-2.47,26.39,26.39,0,0,1-10-8.68A4.88,4.88,0,0,0,73.13,104a2.72,2.72,0,0,0-1.44-.45,3,3,0,0,0-1.62.45,5.74,5.74,0,0,0-1.53,1.62q-6.12,8-13.09,11.42a34.36,34.36,0,0,1-15.34,3.42,28.91,28.91,0,0,1-16.68-5.08A41.5,41.5,0,0,1,10.8,100.92a80.28,80.28,0,0,1-8-22.71A146.85,146.85,0,0,1,0,48.3,95.83,95.83,0,0,1,.54,37.1a19.24,19.24,0,0,1,2-7A8.11,8.11,0,0,1,6.3,26.49a15,15,0,0,1,6-1c2.58,0,4.46.49,5.62,1.48S19.7,29.62,19.7,32a40.93,40.93,0,0,1-.54,6.25,39.7,39.7,0,0,0-.54,6,145.27,145.27,0,0,0,1.84,24,87.31,87.31,0,0,0,5.13,18.89,36.32,36.32,0,0,0,7.83,12.32,14.11,14.11,0,0,0,10,4.41q12.24,0,18.08-12.5a6.88,6.88,0,0,0,.72-1.85,8.9,8.9,0,0,0,.18-1.84V86.57a5.39,5.39,0,0,0-.18-1.3q-.45-3.42-.67-6.52t-.23-6.16"/><path class="cls-1" d="M160.38,19.34a15.45,15.45,0,0,1-4.91-.77,11.77,11.77,0,0,1-3.95-2.16,10.77,10.77,0,0,1-2.66-3.28,8.79,8.79,0,0,1-1-4.14,7.37,7.37,0,0,1,3-6.11A12.78,12.78,0,0,1,158.94.54a12.06,12.06,0,0,1,4.49.85,13.29,13.29,0,0,1,3.83,2.3,11.09,11.09,0,0,1,2.65,3.37,8.67,8.67,0,0,1,1,4,7.27,7.27,0,0,1-2.83,6.07,12.23,12.23,0,0,1-7.69,2.21M148.05,46.77a6.19,6.19,0,0,1,2.75-5.17,11.88,11.88,0,0,1,7.24-2q8.09,0,8.63,5.58.36,3.87.77,8.73t.81,10.3c.27,3.63.5,7.37.72,11.24s.4,7.68.58,11.42.33,7.37.45,10.84.18,6.66.18,9.54A7.71,7.71,0,0,1,167,114q-3.19,2.25-9.31,2.25a6.66,6.66,0,0,1-4.37-1.3,4.72,4.72,0,0,1-1.57-3.83q0-12.4-.59-23.25T149.9,68.54c-.45-5.64-.88-10.33-1.26-14.08s-.59-6.31-.59-7.69"/><path class="cls-1" d="M182,8.63Q182,4,184.66,2t8.91-2a14.07,14.07,0,0,1,3.77.45A6.23,6.23,0,0,1,200,1.93a7.43,7.43,0,0,1,1.76,2.79,23.31,23.31,0,0,1,1.12,4.45q1.17,8,2.39,16.78t2.33,17.45q1.13,8.68,2.12,16.91c.66,5.48,1.24,10.59,1.75,15.29s.9,8.88,1.17,12.5.41,6.5.41,8.59a22.11,22.11,0,0,1-.59,5.49,7.51,7.51,0,0,1-2,3.6,8,8,0,0,1-3.59,1.93,21.66,21.66,0,0,1-5.45.59,7.31,7.31,0,0,1-5-1.62,6.24,6.24,0,0,1-1.84-5q0-3.42-.54-9.13c-.36-3.81-.85-8-1.44-12.73s-1.28-9.65-2-14.93-1.52-10.49-2.33-15.65L186,34.4q-1.14-7.14-2-12.68t-1.44-9.09c-.36-2.36-.54-3.7-.54-4"/><path class="cls-1" d="M222.53,8.63q0-4.67,2.7-6.65t8.91-2a14.17,14.17,0,0,1,3.77.45,6.23,6.23,0,0,1,2.7,1.48,7.54,7.54,0,0,1,1.75,2.79,23.24,23.24,0,0,1,1.13,4.45q1.17,8,2.38,16.78t2.34,17.45q1.13,8.68,2.12,16.91c.65,5.48,1.24,10.59,1.75,15.29s.9,8.88,1.17,12.5.4,6.5.4,8.59a22.15,22.15,0,0,1-.58,5.49,7.51,7.51,0,0,1-2,3.6,8,8,0,0,1-3.6,1.93,21.52,21.52,0,0,1-5.44.59,7.29,7.29,0,0,1-5-1.62,6.25,6.25,0,0,1-1.85-5q0-3.42-.54-9.13t-1.43-12.73q-.92-7-2-14.93t-2.34-15.65L226.53,34.4q-1.12-7.14-2-12.68t-1.44-9.09c-.36-2.36-.54-3.7-.54-4"/><path class="cls-2" d="M307.39,3.67H268.67a.83.83,0,0,0-.82.83V106a.83.83,0,0,0,.82.83h38.72a.83.83,0,0,0,.83-.83v-3a.83.83,0,0,0-.83-.83h-34.7V56.8h29a.83.83,0,0,0,.83-.82v-2.9a.83.83,0,0,0-.83-.83h-29V8.36h34.7a.83.83,0,0,0,.83-.82v-3a.83.83,0,0,0-.83-.83"/><path class="cls-2" d="M348.07,4.15a.82.82,0,0,0-.8-.63h-4.5a.82.82,0,0,0-.8.64L317.46,105.82a.84.84,0,0,0,.8,1h2.9a.84.84,0,0,0,.81-.63l5.79-23.3h34.82l5.79,23.3a.82.82,0,0,0,.8.63h3.19a.84.84,0,0,0,.65-.32.82.82,0,0,0,.15-.71Zm-19.33,74.2L345,11.58l16.63,66.77Z"/><path class="cls-2" d="M406.31,53.53c-9.58-6.41-18.62-12.47-18.62-24.82,0-9.68,2.95-21.21,17-21.21,7.7,0,16.87,3.7,16.87,21.36v2a.82.82,0,0,0,.83.82h3.19a.82.82,0,0,0,.82-.82V29c0-16.8-7.76-26.06-21.86-26.06s-21.7,9.34-21.7,25.92c0,14.74,10.39,21.67,20.43,28.37,9.48,6.33,18.44,12.3,18.44,24.42,0,9.68-3,21.22-17.3,21.22S387.1,91.33,387.1,81.65V76.57a.83.83,0,0,0-.82-.83h-3a.83.83,0,0,0-.82.83V81.5c0,16.8,7.81,26.06,22,26.06s22.14-9.26,22.14-26.06c0-14.42-10.29-21.31-20.24-28"/><path class="cls-2" d="M487,4a.83.83,0,0,0-.69-.36H483a.82.82,0,0,0-.77.52L460.82,58.37,439.4,4.19a.82.82,0,0,0-.77-.52h-3.19a.81.81,0,0,0-.68.36.82.82,0,0,0-.09.76l23.58,60.33V106a.84.84,0,0,0,.83.83h3.19a.83.83,0,0,0,.83-.83V65.13l24-60.33A.84.84,0,0,0,487,4"/><text class="cls-3" transform="translate(181.96 146.95)">Search, find,go!</text></g></g></svg>