<svg xmlns="http://www.w3.org/2000/svg" viewBox="0 0 487.17 160.63"><defs><style>.cls-1{fill:#00b7fc;}.cls-2{fill:#1d1d1b;}</style></defs><g id="Livello_2" data-name="Livello 2"><g id="Livello_1-2" data-name="Livello 1"><path class="cls-1" d="M61.34,72.59q0-14.22,3.42-21.86t9.8-7.65q10.17,0,10.17,17.55a94,94,0,0,1-.68,11.69,90.93,90.93,0,0,1-1.93,10.61,13.41,13.41,0,0,0-.27,1.35,8.31,8.31,0,0,0-.09,1.17,7.35,7.35,0,0,0,.72,3.33Q87,100.2,99.12,100.2a17.86,17.86,0,0,0,8.1-1.89,20.74,20.74,0,0,0,6.56-5.17,24.24,24.24,0,0,0,4.36-7.69,28.17,28.17,0,0,0,1.58-9.54,29.08,29.08,0,0,0-1.35-9.57,37.57,37.57,0,0,0-3-6.57l-3-5a10,10,0,0,1-1.35-5.17,4.54,4.54,0,0,1,1.22-2.83A14.14,14.14,0,0,1,115.36,44a17.72,17.72,0,0,1,4-2.08,12.41,12.41,0,0,1,4.19-.81c1.73,0,3.46,1,5.17,2.89a27.7,27.7,0,0,1,4.58,7.5,52.22,52.22,0,0,1,3.24,10.57,59.56,59.56,0,0,1,1.22,12,42.22,42.22,0,0,1-3.24,16.47,44.47,44.47,0,0,1-8.81,13.58,42.1,42.1,0,0,1-13,9.26,37.08,37.08,0,0,1-15.7,3.42,29.83,29.83,0,0,1-12.46-2.47,26.39,26.39,0,0,1-10-8.68A4.88,4.88,0,0,0,73.13,104a2.72,2.72,0,0,0-1.44-.45,3,3,0,0,0-1.62.45,5.74,5.74,0,0,0-1.53,1.62q-6.12,8-13.09,11.42a34.36,34.36,0,0,1-15.34,3.42,28.91,28.91,0,0,1-16.68-5.08A41.5,41.5,0,0,1,10.8,100.92a80.28,80.28,0,0,1-8-22.71A146.85,146.85,0,0,1,0,48.3,95.83,95.83,0,0,1,.54,37.1a19.24,19.24,0,0,1,2-7A8.11,8.11,0,0,1,6.3,26.49a15,15,0,0,1,6-1c2.58,0,4.46.49,5.62,1.48S19.7,29.62,19.7,32a40.93,40.93,0,0,1-.54,6.25,39.7,39.7,0,0,0-.54,6,145.27,145.27,0,0,0,1.84,24,87.31,87.31,0,0,0,5.13,18.89,36.32,36.32,0,0,0,7.83,12.32,14.11,14.11,0,0,0,10,4.41q12.24,0,18.08-12.5a6.88,6.88,0,0,0,.72-1.85,8.9,8.9,0,0,0,.18-1.84V86.57a5.39,5.39,0,0,0-.18-1.3q-.45-3.42-.67-6.52t-.23-6.16"/><path class="cls-1" d="M160.38,19.34a15.45,15.45,0,0,1-4.91-.77,11.77,11.77,0,0,1-3.95-2.16,10.77,10.77,0,0,1-2.66-3.28,8.79,8.79,0,0,1-1-4.14,7.37,7.37,0,0,1,3-6.11A12.78,12.78,0,0,1,158.94.54a12.06,12.06,0,0,1,4.49.85,13.29,13.29,0,0,1,3.83,2.3,11.09,11.09,0,0,1,2.65,3.37,8.67,8.67,0,0,1,1,4,7.27,7.27,0,0,1-2.83,6.07,12.23,12.23,0,0,1-7.69,2.21M148.05,46.77a6.19,6.19,0,0,1,2.75-5.17,11.88,11.88,0,0,1,7.24-2q8.09,0,8.63,5.58.36,3.87.77,8.73t.81,10.3c.27,3.63.5,7.37.72,11.24s.4,7.68.58,11.42.33,7.37.45,10.84.18,6.66.18,9.54A7.71,7.71,0,0,1,167,114q-3.19,2.25-9.31,2.25a6.66,6.66,0,0,1-4.37-1.3,4.72,4.72,0,0,1-1.57-3.83q0-12.4-.59-23.25T149.9,68.54c-.45-5.64-.88-10.33-1.26-14.08s-.59-6.31-.59-7.69"/><path class="cls-1" d="M182,8.63Q182,4,184.66,2t8.91-2a14.07,14.07,0,0,1,3.77.45A6.23,6.23,0,0,1,200,1.93a7.43,7.43,0,0,1,1.76,2.79,23.31,23.31,0,0,1,1.12,4.45q1.17,8,2.39,16.78t2.33,17.45q1.13,8.68,2.12,16.91c.66,5.48,1.24,10.59,1.75,15.29s.9,8.88,1.17,12.5.41,6.5.41,8.59a22.11,22.11,0,0,1-.59,5.49,7.51,7.51,0,0,1-2,3.6,8,8,0,0,1-3.59,1.93,21.66,21.66,0,0,1-5.45.59,7.31,7.31,0,0,1-5-1.62,6.24,6.24,0,0,1-1.84-5q0-3.42-.54-9.13c-.36-3.81-.85-8-1.44-12.73s-1.28-9.65-2-14.93-1.52-10.49-2.33-15.65L186,34.4q-1.14-7.14-2-12.68t-1.44-9.09c-.36-2.36-.54-3.7-.54-4"/><path class="cls-1" d="M222.53,8.63q0-4.67,2.7-6.65t8.91-2a14.17,14.17,0,0,1,3.77.45,6.23,6.23,0,0,1,2.7,1.48,7.54,7.54,0,0,1,1.75,2.79,23.24,23.24,0,0,1,1.13,4.45q1.17,8,2.38,16.78t2.34,17.45q1.13,8.68,2.12,16.91c.65,5.48,1.24,10.59,1.75,15.29s.9,8.88,1.17,12.5.4,6.5.4,8.59a22.15,22.15,0,0,1-.58,5.49,7.51,7.51,0,0,1-2,3.6,8,8,0,0,1-3.6,1.93,21.52,21.52,0,0,1-5.44.59,7.29,7.29,0,0,1-5-1.62,6.25,6.25,0,0,1-1.85-5q0-3.42-.54-9.13t-1.43-12.73q-.92-7-2-14.93t-2.34-15.65L226.53,34.4q-1.12-7.14-2-12.68t-1.44-9.09c-.36-2.36-.54-3.7-.54-4"/><path class="cls-2" d="M307.39,3.67H268.67a.83.83,0,0,0-.82.83V106a.83.83,0,0,0,.82.83h38.72a.83.83,0,0,0,.83-.83v-3a.83.83,0,0,0-.83-.83h-34.7V56.8h29a.83.83,0,0,0,.83-.82v-2.9a.83.83,0,0,0-.83-.83h-29V8.36h34.7a.83.83,0,0,0,.83-.82v-3a.83.83,0,0,0-.83-.83"/><path class="cls-2" d="M348.07,4.15a.82.82,0,0,0-.8-.63h-4.5a.82.82,0,0,0-.8.64L317.46,105.82a.84.84,0,0,0,.8,1h2.9a.84.84,0,0,0,.81-.63l5.79-23.3h34.82l5.79,23.3a.82.82,0,0,0,.8.63h3.19a.84.84,0,0,0,.65-.32.82.82,0,0,0,.15-.71Zm-19.33,74.2L345,11.58l16.63,66.77Z"/><path class="cls-2" d="M406.31,53.53c-9.58-6.41-18.62-12.47-18.62-24.82,0-9.68,2.95-21.21,17-21.21,7.7,0,16.87,3.7,16.87,21.36v2a.82.82,0,0,0,.83.82h3.19a.82.82,0,0,0,.82-.82V29c0-16.8-7.76-26.06-21.86-26.06s-21.7,9.34-21.7,25.92c0,14.74,10.39,21.67,20.43,28.37,9.48,6.33,18.44,12.3,18.44,24.42,0,9.68-3,21.22-17.3,21.22S387.1,91.33,387.1,81.65V76.57a.83.83,0,0,0-.82-.83h-3a.83.83,0,0,0-.82.83V81.5c0,16.8,7.81,26.06,22,26.06s22.14-9.26,22.14-26.06c0-14.42-10.29-21.31-20.24-28"/><path class="cls-2" d="M487,4a.83.83,0,0,0-.69-.36H483a.82.82,0,0,0-.77.52L460.82,58.37,439.4,4.19a.82.82,0,0,0-.77-.52h-3.19a.81.81,0,0,0-.68.36.82.82,0,0,0-.09.76l23.58,60.33V106a.84.84,0,0,0,.83.83h3.19a.83.83,0,0,0,.83-.83V65.13l24-60.33A.84.84,0,0,0,487,4"/><path class="cls-1" d="M188.25,137.83a4.87,4.87,0,0,0,.66,2.48,6.83,6.83,0,0,0,1.72,2,8.25,8.25,0,0,0,2.44,1.34,8.8,8.8,0,0,0,2.83.47,5.75,5.75,0,0,0,.91-.07,3.07,3.07,0,0,0,.84-.28,1.88,1.88,0,0,0,.62-.53,1.24,1.24,0,0,0,.25-.81,3.12,3.12,0,0,0-.66-1.84,9.91,9.91,0,0,0-1.72-1.81,24.56,24.56,0,0,0-2.44-1.8c-.92-.6-1.86-1.2-2.8-1.79S189,134,188.1,133.4a24.76,24.76,0,0,1-2.45-1.8,10.3,10.3,0,0,1-1.72-1.82,3.18,3.18,0,0,1-.66-1.86,3.21,3.21,0,0,1,.46-1.65,5.27,5.27,0,0,1,1.21-1.39,9,9,0,0,1,1.76-1.11,13.15,13.15,0,0,1,2.09-.82,14,14,0,0,1,2.18-.5,14.34,14.34,0,0,1,2.1-.17l1.62,0a10.36,10.36,0,0,1,1.64.2,3.85,3.85,0,0,1,1.28.5,1.08,1.08,0,0,1,.51,1,2.11,2.11,0,0,1-.07.5,5.47,5.47,0,0,1-.38,1,2.47,2.47,0,0,1-.72,1,1.61,1.61,0,0,1-1,.33,9.56,9.56,0,0,1-1.93-.21,9.28,9.28,0,0,0-2-.22,10.65,10.65,0,0,0-1.12.06,5.08,5.08,0,0,0-1,.2,1.91,1.91,0,0,0-.76.42,1,1,0,0,0-.29.7,1.43,1.43,0,0,0,.61,1,13.83,13.83,0,0,0,1.62,1.17c.68.44,1.45.91,2.3,1.42s1.74,1.06,2.64,1.64,1.77,1.21,2.63,1.87a17.24,17.24,0,0,1,2.3,2.09,10.13,10.13,0,0,1,1.62,2.32,5.55,5.55,0,0,1,.61,2.53,5.34,5.34,0,0,1-.73,2.82,6.74,6.74,0,0,1-1.89,2,8.37,8.37,0,0,1-2.55,1.23,9.54,9.54,0,0,1-2.74.41,12.34,12.34,0,0,1-2.74-.32,14.59,14.59,0,0,1-2.68-.91,13.5,13.5,0,0,1-2.41-1.42,10.15,10.15,0,0,1-1.94-1.87,8.5,8.5,0,0,1-1.3-2.23,6.71,6.71,0,0,1-.48-2.51,7.24,7.24,0,0,1,.08-1.13,3.66,3.66,0,0,1,.27-1,2.06,2.06,0,0,1,.56-.71,1.47,1.47,0,0,1,.91-.28,3.18,3.18,0,0,1,.4,0,5.26,5.26,0,0,1,.78.21,3,3,0,0,1,1.14.63A1.41,1.41,0,0,1,188.25,137.83Z"/><path class="cls-1" d="M224.28,142.08a2,2,0,0,1,1.27-.56,1.17,1.17,0,0,1,.64.18,3,3,0,0,1,.65.56,6.89,6.89,0,0,1,.48.83,1.63,1.63,0,0,1,.14.63,1.7,1.7,0,0,1-.67,1.27,15.74,15.74,0,0,1-2.31,1.59,18,18,0,0,1-2.6,1.19,17.19,17.19,0,0,1-2.8.74,16.44,16.44,0,0,1-2.86.26,11.9,11.9,0,0,1-3.38-.46A9.41,9.41,0,0,1,210,147a8.2,8.2,0,0,1-2.08-2,7.76,7.76,0,0,1-1.2-2.68,2.37,2.37,0,0,0-.37-.81.67.67,0,0,0-.54-.19,1.83,1.83,0,0,1-1.27-.4,1.49,1.49,0,0,1-.44-1.15,1.12,1.12,0,0,1,0-.4l.05-.45a2.13,2.13,0,0,1,.43-1.15,1.3,1.3,0,0,1,1-.36H206a1.34,1.34,0,0,0,1.31-.87,11.73,11.73,0,0,1,4.15-5,11.34,11.34,0,0,1,2.86-1.4,10,10,0,0,1,6.17,0,7.75,7.75,0,0,1,2.5,1.32,6.21,6.21,0,0,1,1.68,2,5,5,0,0,1,.61,2.44,4,4,0,0,1-.35,1.67,4,4,0,0,1-1,1.32,5.34,5.34,0,0,1-1.61.92,8.32,8.32,0,0,1-2.14.47l-7.71.77a1.09,1.09,0,0,0-.72.23.72.72,0,0,0-.28.6,1.75,1.75,0,0,0,.43,1.11,4.11,4.11,0,0,0,1.16.94,6.39,6.39,0,0,0,1.66.66,7.89,7.89,0,0,0,1.95.24,10.42,10.42,0,0,0,2-.19,11.73,11.73,0,0,0,2-.54,13.85,13.85,0,0,0,1.93-.86A11.94,11.94,0,0,0,224.28,142.08Zm-4.95-5.73a1.17,1.17,0,0,0,.58-.33.88.88,0,0,0,.24-.63,1,1,0,0,0-.24-.62,2.43,2.43,0,0,0-.67-.52,3.77,3.77,0,0,0-1-.37,5,5,0,0,0-1.18-.13,6.78,6.78,0,0,0-1.86.26,8,8,0,0,0-1.74.7,5.15,5.15,0,0,0-1.26,1,1.52,1.52,0,0,0-.49,1c0,.34.2.51.62.51.25,0,.66,0,1.22-.09l1.87-.21c.68-.08,1.37-.17,2.07-.28Z"/><path class="cls-1" d="M243.27,127.52a7.52,7.52,0,0,1,2.36.38,6.69,6.69,0,0,1,2,1,5,5,0,0,1,1.38,1.6,4.13,4.13,0,0,1,.53,2.06,2,2,0,0,1-.21.9,2.66,2.66,0,0,1-.57.76,3.08,3.08,0,0,1-.81.51,2.41,2.41,0,0,1-.95.19h-.15a.15.15,0,0,1-.09,0l.09,1.78a10.63,10.63,0,0,0,.9,4.64,2.41,2.41,0,0,0,2.12,1.47,3.46,3.46,0,0,0,.83-.09,5.63,5.63,0,0,0,.69-.21l.61-.21a2,2,0,0,1,.58-.09,1.19,1.19,0,0,1,.9.44,1.59,1.59,0,0,1,.39,1.07,2,2,0,0,1-.48,1.25,5.07,5.07,0,0,1-1.25,1.12,7.68,7.68,0,0,1-1.76.81,6.4,6.4,0,0,1-2,.31,4,4,0,0,1-3-1.43,8.62,8.62,0,0,1-1.87-4.21c-.09-.3-.21-.45-.35-.45a.57.57,0,0,0-.47.27,16.24,16.24,0,0,1-4.69,4.17,10.09,10.09,0,0,1-4.91,1.38,5.9,5.9,0,0,1-2-.33,4.38,4.38,0,0,1-1.55-.94,4.25,4.25,0,0,1-1-1.49,5.36,5.36,0,0,1-.34-2,8.47,8.47,0,0,1,.68-3.22,16.11,16.11,0,0,1,1.83-3.33,22.31,22.31,0,0,1,2.68-3.14,23.07,23.07,0,0,1,3.2-2.62,17.5,17.5,0,0,1,3.41-1.8A9.3,9.3,0,0,1,243.27,127.52Zm-.73,7.69a4.93,4.93,0,0,1,.73-1.1,1.66,1.66,0,0,1,1-.45c.32,0,.48-.15.48-.31a.67.67,0,0,0-.13-.38,6.83,6.83,0,0,0-.89-1,1.74,1.74,0,0,0-1.24-.44,4.61,4.61,0,0,0-1.89.49,12.24,12.24,0,0,0-2.12,1.3,20.63,20.63,0,0,0-3.95,4,12.61,12.61,0,0,0-1.29,2.15,4.78,4.78,0,0,0-.48,1.92,1.58,1.58,0,0,0,.41,1.17,1.48,1.48,0,0,0,1.12.43,6.27,6.27,0,0,0,4-1.94A22.74,22.74,0,0,0,242.54,135.21Z"/><path class="cls-1" d="M267.08,130.32a2.49,2.49,0,0,0-1.45.44,3.67,3.67,0,0,0-1.06,1.2,7.43,7.43,0,0,0-.73,1.8,17.12,17.12,0,0,0-.47,2.25c-.12.82-.2,1.67-.25,2.56s-.06,1.78-.06,2.69c0,1.18.05,2.35.14,3.5s.15,2.21.15,3.19a1.79,1.79,0,0,1-.72,1.5,3.26,3.26,0,0,1-2,.54c-.16,0-.35,0-.55,0a2.25,2.25,0,0,1-.59-.18,1.48,1.48,0,0,1-.49-.37,1,1,0,0,1-.23-.63c-.14-1.31-.33-2.64-.58-4s-.57-2.72-.95-4.08a39.7,39.7,0,0,0-1.35-4,37.41,37.41,0,0,0-1.81-3.91c-.12-.23-.22-.43-.3-.63a1.4,1.4,0,0,1-.12-.55,1.22,1.22,0,0,1,.3-.72,4,4,0,0,1,.75-.73,4.59,4.59,0,0,1,1-.54,2.94,2.94,0,0,1,1.06-.21c.56,0,1.06.39,1.49,1.17a14.38,14.38,0,0,1,1.2,3.72c.07.29.13.5.17.62s.11.18.18.18.27-.25.31-.76a13.75,13.75,0,0,1,.91-3.63,8,8,0,0,1,1.61-2.51,6,6,0,0,1,2.23-1.46,7.87,7.87,0,0,1,2.76-.46,10.55,10.55,0,0,1,1.76.15,6.81,6.81,0,0,1,1.6.47,3.82,3.82,0,0,1,1.15.75,1.38,1.38,0,0,1,.45,1,3.41,3.41,0,0,1-.17.95,5.56,5.56,0,0,1-.43,1,3.5,3.5,0,0,1-.61.85,1,1,0,0,1-.7.34,1.5,1.5,0,0,1-.78-.23l-.81-.5a8.83,8.83,0,0,0-.91-.5A2.38,2.38,0,0,0,267.08,130.32Z"/><path class="cls-1" d="M279.44,128.61a7.44,7.44,0,0,1,2.25.34,7.08,7.08,0,0,1,1.92.9,5.18,5.18,0,0,1,1.35,1.28,2.57,2.57,0,0,1,.51,1.48,2.42,2.42,0,0,1-.2.95,2.75,2.75,0,0,1-.54.8,2.69,2.69,0,0,1-.75.55,2,2,0,0,1-.89.21,1.37,1.37,0,0,1-.93-.38q-.44-.39-.9-.87a7,7,0,0,0-1.07-.87,2.48,2.48,0,0,0-1.41-.39,2.83,2.83,0,0,0-1.45.38,3,3,0,0,0-1.07,1.06,5.18,5.18,0,0,0-.67,1.6,7.93,7.93,0,0,0-.23,2,8.09,8.09,0,0,0,1.17,4.74,3.91,3.91,0,0,0,3.38,1.63,4.4,4.4,0,0,0,1.79-.33A8,8,0,0,0,283,143l1-.74a1.64,1.64,0,0,1,1-.33,1,1,0,0,1,.53.17,1.91,1.91,0,0,1,.48.42,2.76,2.76,0,0,1,.36.57,1.51,1.51,0,0,1,.14.62,2.28,2.28,0,0,1-.72,1.51,7.32,7.32,0,0,1-1.86,1.41,11.46,11.46,0,0,1-2.52,1,9.6,9.6,0,0,1-2.7.4,7.44,7.44,0,0,1-5.75-2.56,8.53,8.53,0,0,1-1.66-2.9,11.37,11.37,0,0,1-.59-3.74,12.12,12.12,0,0,1,.66-4.08,9.84,9.84,0,0,1,1.82-3.24,8.33,8.33,0,0,1,2.77-2.13A7.92,7.92,0,0,1,279.44,128.61Z"/><path class="cls-1" d="M286.9,125.55c0-1.6,1-2.4,3.11-2.4a1.47,1.47,0,0,1,.93.29,1.1,1.1,0,0,1,.47.8c.13.9.25,1.8.36,2.68s.2,1.89.3,3,.19,2.38.28,3.83.21,3.16.33,5.16a.75.75,0,0,0,.1.45.29.29,0,0,0,.23.13c.13,0,.27-.13.4-.4a18.09,18.09,0,0,1,1.69-3,12.2,12.2,0,0,1,2-2.24,7.71,7.71,0,0,1,2.25-1.4,6.51,6.51,0,0,1,2.44-.48,5.06,5.06,0,0,1,3,.93,7.56,7.56,0,0,1,2.27,2.65,15.53,15.53,0,0,1,1.45,4.14,26.52,26.52,0,0,1,.51,5.43,5.6,5.6,0,0,1-.13,1.35,1.71,1.71,0,0,1-.41.83,1.51,1.51,0,0,1-.8.43,5,5,0,0,1-1.26.13,2.28,2.28,0,0,1-1.5-.4,1.56,1.56,0,0,1-.46-1.25,25.91,25.91,0,0,0-.28-3.94,18.24,18.24,0,0,0-.76-3.26,7.64,7.64,0,0,0-1.15-2.22,1.8,1.8,0,0,0-1.41-.82c-1.14,0-2.28.92-3.41,2.78a42.21,42.21,0,0,0-3.54,8.37,4.52,4.52,0,0,1-.4.85,1.91,1.91,0,0,1-.53.53,1.94,1.94,0,0,1-.72.28,5.7,5.7,0,0,1-1,.08,2.52,2.52,0,0,1-1.68-.45A2,2,0,0,1,289,147q-.13-3.87-.48-7.39c-.23-2.35-.46-4.48-.71-6.38s-.46-3.52-.64-4.85A22.6,22.6,0,0,1,286.9,125.55Z"/><path class="cls-1" d="M321.6,144.26a4.68,4.68,0,0,1-.34,1.15q-.33.92-.87,2.13t-1.26,2.58c-.47.91-1,1.74-1.44,2.49a13.11,13.11,0,0,1-1.44,1.88,1.85,1.85,0,0,1-1.25.74,2,2,0,0,1-.67-.15,5.56,5.56,0,0,1-.77-.39,4.11,4.11,0,0,1-.63-.51.82.82,0,0,1-.27-.55,4.11,4.11,0,0,1,.46-1.1c.3-.58.68-1.34,1.12-2.26s.92-2,1.42-3.19a32.46,32.46,0,0,0,1.34-3.87,1.68,1.68,0,0,1,.38-.7.86.86,0,0,1,.66-.25,3.85,3.85,0,0,1,1,.16,6.41,6.41,0,0,1,1.17.45,4.34,4.34,0,0,1,1,.63A1,1,0,0,1,321.6,144.26Z"/><path class="cls-1" d="M336.51,134.7a1.05,1.05,0,0,1-.83-.66,3.17,3.17,0,0,1-.31-1.38,4,4,0,0,1,.06-.7,2.08,2.08,0,0,1,.19-.61,1.37,1.37,0,0,1,.33-.44.71.71,0,0,1,.47-.16c.55,0,1.17,0,1.89-.06l2.28-.12a.72.72,0,0,0,.69-.74c.14-2.14.32-4,.56-5.55a25.33,25.33,0,0,1,.87-3.94,10.6,10.6,0,0,1,1.16-2.62,5.37,5.37,0,0,1,1.46-1.53,4.72,4.72,0,0,1,.57-.36,1.26,1.26,0,0,1,.63-.19,2.83,2.83,0,0,1,1.16.27,5.58,5.58,0,0,1,1.14.71,4.13,4.13,0,0,1,.85,1,2.13,2.13,0,0,1,.34,1.08.53.53,0,0,1-.09.32,1.7,1.7,0,0,1-.23.24,9.52,9.52,0,0,0-1.53,1.44,7.37,7.37,0,0,0-1.13,2,15.27,15.27,0,0,0-.78,2.77,33.86,33.86,0,0,0-.47,3.91.84.84,0,0,0,.13.53.52.52,0,0,0,.45.16,10.9,10.9,0,0,0,1.39-.1c.54-.06,1.12-.14,1.72-.24l1.85-.31,1.76-.31,1.5-.25a8.84,8.84,0,0,1,1-.1,1.51,1.51,0,0,1,1.15.49,2.12,2.12,0,0,1,.45,1.47c0,.63.12,1.35.18,2.15s.14,1.65.2,2.55.13,1.82.18,2.77.1,1.9.15,2.83.08,1.82.11,2.67,0,1.65,0,2.36a1.9,1.9,0,0,1-.79,1.67,4,4,0,0,1-2.32.55,1.65,1.65,0,0,1-1.07-.32,1.18,1.18,0,0,1-.37-.94q0-4-.25-7.2c-.16-2.17-.31-4-.44-5.45,0-.69-.39-1-1-1l-5.55.62a.61.61,0,0,0-.57.38,2.77,2.77,0,0,0-.1.86c0,3.28.08,6.09.25,8.45s.34,4.33.54,5.94.38,2.88.54,3.8a12.59,12.59,0,0,1,.25,2,1.19,1.19,0,0,1-.37.85,3.12,3.12,0,0,1-.93.64,5.39,5.39,0,0,1-1.23.41,5.74,5.74,0,0,1-1.25.15,2.57,2.57,0,0,1-1-.19.8.8,0,0,1-.5-.64c-.15-1-.27-2.17-.37-3.41s-.19-2.6-.26-4.11-.12-3.15-.14-4.93-.05-3.74-.05-5.88v-1.6c0-.52,0-1,.05-1.55s-.25-.67-.74-.67Zm19.15-10.42a3.7,3.7,0,0,1-1.21-.19,2.94,2.94,0,0,1-1-.53,2.56,2.56,0,0,1-.66-.81,2.33,2.33,0,0,1-.23-1,1.83,1.83,0,0,1,.75-1.51,3.15,3.15,0,0,1,2-.57,3.05,3.05,0,0,1,1.12.21,3.4,3.4,0,0,1,.94.56,2.79,2.79,0,0,1,.65.84,2.08,2.08,0,0,1,.25,1,1.8,1.8,0,0,1-.7,1.5A3,3,0,0,1,355.66,124.28Z"/><path class="cls-1" d="M363,129a1,1,0,0,1,.28-.65,2.88,2.88,0,0,1,.76-.58,4.88,4.88,0,0,1,1.06-.42,4.32,4.32,0,0,1,1.18-.17.88.88,0,0,1,.57.18,1.41,1.41,0,0,1,.41.68,7.57,7.57,0,0,1,.32,1.4c.1.6.19,1.38.28,2.34a6.61,6.61,0,0,0,.17.68c.05.15.12.23.21.23s.27-.23.4-.69c1.08-3.12,2.64-4.69,4.69-4.69a4.19,4.19,0,0,1,2.59.89,8.49,8.49,0,0,1,2.18,2.9,30.52,30.52,0,0,1,1.92,5.29q.9,3.28,1.82,8.08c0,.16.05.31.07.44s0,.26,0,.38a1.59,1.59,0,0,1-.24.88,1.84,1.84,0,0,1-.61.6,3.16,3.16,0,0,1-.84.35,3.31,3.31,0,0,1-.93.13,3.38,3.38,0,0,1-1.35-.2,1,1,0,0,1-.52-.76q-.64-3.37-1.26-6t-1.2-4.41a13.39,13.39,0,0,0-1.16-2.72c-.39-.62-.77-.93-1.16-.93a1.39,1.39,0,0,0-1.08.72,8.51,8.51,0,0,0-1,2.25,37.3,37.3,0,0,0-.9,3.89c-.29,1.57-.57,3.45-.84,5.62a2,2,0,0,1-.88,1.43,3.47,3.47,0,0,1-2,.53,1.93,1.93,0,0,1-1.22-.33,1.23,1.23,0,0,1-.47-.92c-.13-3.08-.28-5.61-.43-7.61s-.3-3.59-.44-4.8-.24-2.1-.33-2.7A9.49,9.49,0,0,1,363,129Z"/><path class="cls-1" d="M399.59,130.7a.62.62,0,0,0,.27.05c.32,0,.48-.22.48-.65v-6.91a2.48,2.48,0,0,1,.59-1.86,2.8,2.8,0,0,1,2-.56,2.15,2.15,0,0,1,2.56,2.55c0,.36,0,.88-.07,1.57s-.09,1.47-.15,2.35-.1,1.81-.14,2.81-.07,2-.07,3a22,22,0,0,0,.31,3.91,9.83,9.83,0,0,0,.89,2.73,4.41,4.41,0,0,0,1.38,1.6,3.27,3.27,0,0,0,1.8.52,3.2,3.2,0,0,0,1-.15,3.78,3.78,0,0,1,1.08-.14.87.87,0,0,1,.74.45,2,2,0,0,1,.3,1.1,1.9,1.9,0,0,1-.34,1.09,3.17,3.17,0,0,1-.93.89,5,5,0,0,1-1.37.59,6.2,6.2,0,0,1-1.62.21,5.46,5.46,0,0,1-3.34-1.12,6.73,6.73,0,0,1-2.26-3.43c-.05-.24-.12-.36-.22-.36s-.22.12-.29.36a11.84,11.84,0,0,1-1.57,2.92,10,10,0,0,1-2.24,2.22,9.83,9.83,0,0,1-2.8,1.41,10.38,10.38,0,0,1-3.22.49,8.74,8.74,0,0,1-3.25-.59,7.47,7.47,0,0,1-2.54-1.64,7.58,7.58,0,0,1-1.67-2.49,8,8,0,0,1-.6-3.1,9.37,9.37,0,0,1,.89-4,10.49,10.49,0,0,1,2.41-3.3,11.47,11.47,0,0,1,7.85-3.06,13.82,13.82,0,0,1,2,.15A15.68,15.68,0,0,1,399.59,130.7Zm-6.38,13.6a4.43,4.43,0,0,0,2.26-.56,6.58,6.58,0,0,0,1.75-1.41,9,9,0,0,0,1.3-1.88,13.83,13.83,0,0,0,.87-2,15.48,15.48,0,0,0,.49-1.75,6.8,6.8,0,0,0,.15-1.11.76.76,0,0,0-.13-.44,1,1,0,0,0-.4-.3c-.4-.1-.81-.19-1.24-.27l-1.27-.21c-.42-.06-.81-.11-1.19-.14s-.72,0-1,0a7,7,0,0,0-2.43.4,5.18,5.18,0,0,0-1.85,1.13,5.08,5.08,0,0,0-1.19,1.75,5.69,5.69,0,0,0-.42,2.21,5.52,5.52,0,0,0,.32,1.92,4.32,4.32,0,0,0,.89,1.45,4,4,0,0,0,1.37.94A4.51,4.51,0,0,0,393.21,144.3Z"/><path class="cls-1" d="M421,144.26a5,5,0,0,1-.33,1.15c-.22.61-.52,1.32-.88,2.13s-.78,1.68-1.26,2.58a28.3,28.3,0,0,1-1.44,2.49,13.88,13.88,0,0,1-1.43,1.88,1.89,1.89,0,0,1-1.26.74,2,2,0,0,1-.67-.15,5.45,5.45,0,0,1-.76-.39,3.77,3.77,0,0,1-.64-.51.85.85,0,0,1-.26-.55,3.92,3.92,0,0,1,.45-1.1c.31-.58.68-1.34,1.13-2.26s.91-2,1.42-3.19a32.47,32.47,0,0,0,1.33-3.87,1.79,1.79,0,0,1,.38-.7.87.87,0,0,1,.67-.25,3.92,3.92,0,0,1,1,.16,6.32,6.32,0,0,1,1.16.45,4.13,4.13,0,0,1,1,.63A1,1,0,0,1,421,144.26Z"/><path class="cls-1" d="M438.34,129.61a11.79,11.79,0,0,1,2,.17q1,.16,1.74.36c.52.12,1,.24,1.33.35a3.35,3.35,0,0,0,.8.17.51.51,0,0,0,.38-.21,4.56,4.56,0,0,1,.44-.46,3.11,3.11,0,0,1,.71-.45,2.64,2.64,0,0,1,1.18-.22,1.92,1.92,0,0,1,1.33.44,1.37,1.37,0,0,1,.49,1.07q0,8.14-.55,13.82a40.56,40.56,0,0,1-1.8,9.23,11.25,11.25,0,0,1-3.22,5.15,7.38,7.38,0,0,1-4.8,1.6,7,7,0,0,1-2.68-.57,11.11,11.11,0,0,1-2.55-1.48,9.12,9.12,0,0,1-1.9-2,3.77,3.77,0,0,1-.74-2.09,1.34,1.34,0,0,1,.36-.78,5.82,5.82,0,0,1,.86-.86,6.08,6.08,0,0,1,1.07-.72,2.16,2.16,0,0,1,.95-.28.87.87,0,0,1,.71.34,3.86,3.86,0,0,1,.55.86c.17.34.34.71.52,1.12a5.28,5.28,0,0,0,.67,1.12,3.4,3.4,0,0,0,1,.86,2.74,2.74,0,0,0,1.44.34q4.85,0,5.69-14.8c0-.44-.13-.67-.38-.67a.55.55,0,0,0-.49.32,13.83,13.83,0,0,1-4.88,4.23,13.47,13.47,0,0,1-6.18,1.41,8.46,8.46,0,0,1-2.91-.48,7,7,0,0,1-2.3-1.33,5.76,5.76,0,0,1-1.5-2.05,6.22,6.22,0,0,1-.54-2.61,8,8,0,0,1,.5-2.76,10.45,10.45,0,0,1,1.4-2.58,12.55,12.55,0,0,1,2.15-2.23,14.53,14.53,0,0,1,2.71-1.77A15,15,0,0,1,435,130,13.82,13.82,0,0,1,438.34,129.61Zm-5.26,13.29a9,9,0,0,0,5.57-1.92,15.34,15.34,0,0,0,4.34-5.59c0-.09.05-.16.06-.21a.47.47,0,0,0,0-.17c0-.14-.15-.3-.46-.46a5,5,0,0,0-1.22-.43c-.51-.11-1.08-.21-1.73-.3a15.67,15.67,0,0,0-1.94-.12,8.79,8.79,0,0,0-3.05.54,9,9,0,0,0-2.59,1.42,7.42,7.42,0,0,0-1.83,2,4.45,4.45,0,0,0-.69,2.35,2.54,2.54,0,0,0,1,2.09A3.92,3.92,0,0,0,433.08,142.9Z"/><path class="cls-1" d="M453.22,139.57a4.65,4.65,0,0,1,.09-.85,5.38,5.38,0,0,0,.09-1,.65.65,0,0,0-.33-.58l-.72-.44a3,3,0,0,1-.72-.62,1.61,1.61,0,0,1-.32-1.09,2.07,2.07,0,0,1,.28-1,3,3,0,0,1,.81-.94,23.72,23.72,0,0,1,2.72-1.75,20.93,20.93,0,0,1,2.82-1.31,19.15,19.15,0,0,1,2.79-.83,13.08,13.08,0,0,1,2.64-.29,10.35,10.35,0,0,1,7.28,2.95,10.21,10.21,0,0,1,2.2,3.2,9.59,9.59,0,0,1,.81,3.92,9.07,9.07,0,0,1-.85,3.88,10.66,10.66,0,0,1-2.3,3.21,11.11,11.11,0,0,1-3.39,2.19,10.94,10.94,0,0,1-8,.1,9.49,9.49,0,0,1-3.11-2,8.77,8.77,0,0,1-2.05-3A9.44,9.44,0,0,1,453.22,139.57ZM463.51,145a5.51,5.51,0,0,0,1.93-.38,6,6,0,0,0,3.21-2.86,5.1,5.1,0,0,0,.55-2.36,6.43,6.43,0,0,0-.49-2.49,6.35,6.35,0,0,0-1.35-2,6.1,6.1,0,0,0-2-1.34,6.4,6.4,0,0,0-2.52-.49,5.19,5.19,0,0,0-3.78,1.27,5.29,5.29,0,0,0-1.31,3.93,8,8,0,0,0,.43,2.67,6.48,6.48,0,0,0,1.21,2.14,5.62,5.62,0,0,0,1.84,1.41A5.2,5.2,0,0,0,463.51,145Z"/><path class="cls-1" d="M476.67,121.46a5.71,5.71,0,0,1-.14-.56,2,2,0,0,1-.06-.49,1.48,1.48,0,0,1,.39-1A1.52,1.52,0,0,1,478,119c2.29,0,3.55.54,3.77,1.64.27,1.39.52,2.79.74,4.2s.42,2.83.59,4.28.3,2.91.4,4.4.14,3,.14,4.57a7.81,7.81,0,0,1,0,.85,2.6,2.6,0,0,1-.18.73,1.37,1.37,0,0,1-.37.53.93.93,0,0,1-.63.2l-1.87-.27a1.23,1.23,0,0,1-.81-.35,1.39,1.39,0,0,1-.28-.78,73.51,73.51,0,0,0-.89-8.51A84.84,84.84,0,0,0,476.67,121.46Zm4.58,27.35a3.7,3.7,0,0,1-1.21-.19,2.8,2.8,0,0,1-1-.53,2.87,2.87,0,0,1-.66-.81,2.19,2.19,0,0,1-.24-1,1.85,1.85,0,0,1,.74-1.52,3.2,3.2,0,0,1,2-.57,3,3,0,0,1,1.11.21,3.25,3.25,0,0,1,.95.57,2.63,2.63,0,0,1,.65.83,2.08,2.08,0,0,1,.25,1,1.8,1.8,0,0,1-.7,1.5A3,3,0,0,1,481.25,148.81Z"/></g></g></svg>