<?xml version="1.0" encoding="UTF-8"?>
<svg width="47px" height="45px" viewBox="0 0 47 45" version="1.1" xmlns="http://www.w3.org/2000/svg" xmlns:xlink="http://www.w3.org/1999/xlink">
    <!-- Generator: Sketch 61.2 (89653) - https://sketch.com -->
    <title>Shape</title>
    <desc>Created with Sketch.</desc>
    <g id="Page-1" stroke="none" stroke-width="1" fill="none" fill-rule="evenodd">
        <path d="M43.009808,21.0503947 C43.5727792,21.0503947 44.0333938,21.5171971 44.0333938,22.0877335 L44.0333938,43.8718938 C44.0333938,44.4424308 43.5727792,44.9092347 43.009808,44.9092347 L4.11354584,44.9092347 C3.55057342,44.9092347 3.08995999,44.4424308 3.08995999,43.8718938 L3.08995999,42.8345529 C3.08995999,42.2640165 3.55057342,41.7972121 4.11354584,41.7972121 L9.23147507,41.7972121 C9.79444728,41.7972121 10.2550609,41.3304082 10.2550609,40.7598712 L10.2550609,38.6851895 C10.2550609,38.114653 10.7156745,37.6478486 11.2786468,37.6478486 L16.396576,37.6478486 C16.9595472,37.6478486 17.4201618,37.1810447 17.4201618,36.6105077 L17.4201618,34.535826 C17.4201618,33.9652896 17.8807765,33.4984851 18.4437477,33.4984851 L23.5616769,33.4984851 C24.1246481,33.4984851 24.5852627,33.0316812 24.5852627,32.4611443 L24.5852627,30.3864625 C24.5852627,29.8159261 25.0458774,29.3491216 25.6088486,29.3491216 L30.7267778,29.3491216 C31.289749,29.3491216 31.7503637,28.8823177 31.7503637,28.3117808 L31.7503637,26.237099 C31.7503637,25.6665626 32.2109783,25.1997582 32.7739495,25.1997582 L37.8918787,25.1997582 C38.4548499,25.1997582 38.9154646,24.7329543 38.9154646,24.1624173 L38.9154646,22.0877356 C38.9154646,21.5171991 39.3760792,21.0503947 39.9390504,21.0503947 L43.009808,21.0503947 Z M6.16071753,22.3470687 L6.16071753,24.6810857 L1.50340173,27.3781724 C1.34986375,27.481907 1.14514679,27.5337731 0.991608807,27.5337731 C0.633353863,27.5337731 0.326278161,27.3263044 0.121560941,27.0151026 C-0.114651177,26.5842067 -0.00199607997,26.0207276 0.419272173,25.6918196 L0.530995381,25.6146919 L6.16071753,22.3470687 Z M18.4437477,22.0877335 L18.4437477,24.1624152 C18.4437477,24.6949164 18.0425011,25.1370545 17.5312852,25.1936396 L17.4201618,25.1997561 L9.23147507,25.1997561 C8.70603433,25.1997561 8.2697593,24.7931198 8.21392459,24.2750323 L8.20788922,24.1624152 L8.20788922,22.0877335 L18.4437477,22.0877335 Z M17.4201618,8.6023022 C17.9456016,8.6023022 18.3818775,9.00893982 18.4377123,9.52702627 L18.4437477,9.63964307 L18.4437477,20.0130518 L8.20788922,20.0130518 L8.20788922,9.63964307 C8.20788922,9.10714142 8.60913487,8.66500369 9.12035155,8.60841867 L9.23147507,8.6023022 L17.4201618,8.6023022 Z M6.16071753,16.9010291 L6.16071753,20.0130518 L4.11354584,20.0130518 C3.58810491,20.0130518 3.15183005,19.6064155 3.09599536,19.088328 L3.08995999,18.9757109 L3.08995999,17.93837 C3.08995999,17.4058693 3.49120547,16.9637308 4.00242229,16.9071456 L4.11354584,16.9010291 L6.16071753,16.9010291 Z M22.5380911,16.9010291 C23.0635308,16.9010291 23.4998067,17.3076677 23.5556415,17.8257534 L23.5616769,17.93837 L23.5616769,18.9757109 C23.5616769,19.508214 23.1604304,19.9503505 22.6492144,20.0069353 L22.5380911,20.0130518 L20.4909194,20.0130518 L20.4909194,16.9010291 L22.5380911,16.9010291 Z M44.5451867,0.147974636 C45.0569797,-0.163227573 45.6711296,0.0442406524 45.9270261,0.511043836 C46.213633,0.995136241 46.0989902,1.56959247 45.6663241,1.85488345 L23.2034213,14.8782139 C23.0498846,14.839314 22.8675587,14.8295891 22.6996263,14.8271578 L20.4909194,14.8263474 L20.4909194,14.0483418 L44.5451867,0.147974636 Z" id="Shape" fill="#000000"></path>
    </g>
</svg>